<?xml version="1.0" encoding="UTF-8" standalone="no"?>
<svg
   xmlns="http://www.w3.org/2000/svg"
   height="598"
   width="800"
   xml:space="preserve"
   id="svg70"
   version="1.1"><title
     id="title158">Full binary tree by Theresa Migler-VonDollen</title><g
     transform="matrix(1.3333333,0,0,-1.3333333,0,598)"
     id="g78"><g
       transform="matrix(2.2226451,0,0,2.2226451,-7.6523285,-5.5906493)"
       id="g82"><path
           id="path92"
           style="fill:#048d9f;fill-opacity:1;fill-rule:nonzero;stroke:none"
           d="m 35.61042,83.75688 c 5.43283,-5.13963 5.43283,-13.47261 0,-18.61224 -5.4328,-5.13965 -14.2411,-5.13965 -19.6739,0 -5.43283,5.13963 -5.43283,13.47261 0,18.61224 5.4328,5.13966 14.2411,5.13966 19.6739,0" /><g
           transform="matrix(1,0,0,-1,-216,286)"
           id="g94"><path
             id="path96"
             style="fill:none;stroke:#000000;stroke-width:1;stroke-linecap:round;stroke-linejoin:round;stroke-miterlimit:10;stroke-dasharray:none;stroke-opacity:1"
             d="m 251.6104,202.2431 c 5.4329,5.1396 5.4329,13.4726 0,18.6123 -5.4328,5.1396 -14.2411,5.1396 -19.6739,0 -5.4328,-5.1397 -5.4328,-13.4727 0,-18.6123 5.4328,-5.1396 14.2411,-5.1396 19.6739,0" /></g><path
           id="path98"
           style="fill:#048d9f;fill-opacity:1;fill-rule:nonzero;stroke:none"
           d="m 182.3142,191.4366 c 5.4329,-5.1396 5.4329,-13.4726 0,-18.6122 -5.4328,-5.1397 -14.2411,-5.1397 -19.6739,0 -5.4328,5.1396 -5.4328,13.4726 0,18.6122 5.4328,5.1397 14.2411,5.1397 19.6739,0" /><g
           transform="matrix(1,0,0,-1,-216,286)"
           id="g100"><path
             id="path102"
             style="fill:none;stroke:#000000;stroke-width:1;stroke-linecap:round;stroke-linejoin:round;stroke-miterlimit:10;stroke-dasharray:none;stroke-opacity:1"
             d="m 398.3142,94.5634 c 5.4329,5.13963 5.4329,13.4726 0,18.6122 -5.4328,5.1397 -14.2411,5.1397 -19.6739,0 -5.4328,-5.1396 -5.4328,-13.47257 0,-18.6122 5.4328,-5.13966 14.2411,-5.13966 19.6739,0" /></g><path
           id="path104"
           style="fill:#048d9f;fill-opacity:1;fill-rule:nonzero;stroke:none"
           d="m 101.3742,134.0074 c 5.4328,-5.1396 5.4328,-13.4726 0,-18.6122 -5.4328,-5.1397 -14.2411,-5.1397 -19.67391,0 -5.43282,5.1396 -5.43282,13.4726 0,18.6122 5.43281,5.1397 14.24111,5.1397 19.67391,0" /><g
           transform="matrix(1,0,0,-1,-216,286)"
           id="g106"><path
             id="path108"
             style="fill:none;stroke:#000000;stroke-width:1;stroke-linecap:round;stroke-linejoin:round;stroke-miterlimit:10;stroke-dasharray:none;stroke-opacity:1"
             d="m 317.3742,151.9926 c 5.4328,5.1396 5.4328,13.4726 0,18.6122 -5.4328,5.1397 -14.2411,5.1397 -19.6739,0 -5.4328,-5.1396 -5.4328,-13.4726 0,-18.6122 5.4328,-5.1397 14.2411,-5.1397 19.6739,0" /></g><path
           id="path110"
           style="fill:#048d9f;fill-opacity:1;fill-rule:nonzero;stroke:none"
           d="m 260.7249,136.4003 c 5.4328,-5.1396 5.4328,-13.4726 0,-18.6122 -5.4328,-5.1397 -14.2411,-5.1397 -19.6739,0 -5.4328,5.1396 -5.4328,13.4726 0,18.6122 5.4328,5.1397 14.2411,5.1397 19.6739,0" /><g
           transform="matrix(1,0,0,-1,-216,286)"
           id="g112"><path
             id="path114"
             style="fill:none;stroke:#000000;stroke-width:1;stroke-linecap:round;stroke-linejoin:round;stroke-miterlimit:10;stroke-dasharray:none;stroke-opacity:1"
             d="m 476.7249,149.5997 c 5.4328,5.1396 5.4328,13.4726 0,18.6122 -5.4328,5.1397 -14.2411,5.1397 -19.6739,0 -5.4328,-5.1396 -5.4328,-13.4726 0,-18.6122 5.4328,-5.1397 14.2411,-5.1397 19.6739,0" /></g><path
           id="path116"
           style="fill:#048d9f;fill-opacity:1;fill-rule:nonzero;stroke:none"
           d="m 184.8436,33.50635 c 5.4328,-5.13963 5.4328,-13.47261 0,-18.61224 -5.4328,-5.139659 -14.2411,-5.139659 -19.6739,0 -5.4328,5.13963 -5.4328,13.47261 0,18.61224 5.4328,5.13965 14.2411,5.13965 19.6739,0" /><g
           transform="matrix(1,0,0,-1,-216,286)"
           id="g118"><path
             id="path120"
             style="fill:none;stroke:#000000;stroke-width:1;stroke-linecap:round;stroke-linejoin:round;stroke-miterlimit:10;stroke-dasharray:none;stroke-opacity:1"
             d="m 400.8436,252.4937 c 5.4328,5.1396 5.4328,13.4726 0,18.6122 -5.4328,5.1396 -14.2411,5.1396 -19.6739,0 -5.4328,-5.1396 -5.4328,-13.4726 0,-18.6122 5.4328,-5.1397 14.2411,-5.1397 19.6739,0" /></g><path
           id="path122"
           style="fill:#048d9f;fill-opacity:1;fill-rule:nonzero;stroke:none"
           d="m 108.9623,33.50635 c 5.4329,-5.13963 5.4329,-13.47261 0,-18.61224 -5.4328,-5.139659 -14.24108,-5.139659 -19.67388,0 -5.43283,5.13963 -5.43283,13.47261 0,18.61224 5.4328,5.13965 14.24108,5.13965 19.67388,0" /><g
           transform="matrix(1,0,0,-1,-216,286)"
           id="g124"><path
             id="path126"
             style="fill:none;stroke:#000000;stroke-width:1;stroke-linecap:round;stroke-linejoin:round;stroke-miterlimit:10;stroke-dasharray:none;stroke-opacity:1"
             d="m 324.9623,252.4937 c 5.4329,5.1396 5.4329,13.4726 0,18.6122 -5.4328,5.1396 -14.2411,5.1396 -19.6739,0 -5.4328,-5.1396 -5.4328,-13.4726 0,-18.6122 5.4328,-5.1397 14.2411,-5.1397 19.6739,0" /></g><path
           id="path128"
           style="fill:#048d9f;fill-opacity:1;fill-rule:nonzero;stroke:none"
           d="m 146.903,83.75688 c 5.4328,-5.13963 5.4328,-13.47261 0,-18.61224 -5.4328,-5.13965 -14.2411,-5.13965 -19.6739,0 -5.4329,5.13963 -5.4329,13.47261 0,18.61224 5.4328,5.13966 14.2411,5.13966 19.6739,0" /><g
           transform="matrix(1,0,0,-1,-216,286)"
           id="g130"><path
             id="path132"
             style="fill:none;stroke:#000000;stroke-width:1;stroke-linecap:round;stroke-linejoin:round;stroke-miterlimit:10;stroke-dasharray:none;stroke-opacity:1"
             d="m 362.903,202.2431 c 5.4328,5.1396 5.4328,13.4726 0,18.6123 -5.4328,5.1396 -14.2411,5.1396 -19.6739,0 -5.4329,-5.1397 -5.4329,-13.4727 0,-18.6123 5.4328,-5.1396 14.2411,-5.1396 19.6739,0" /></g><g
           transform="matrix(1,0,0,-1,-216,286)"
           id="g134"><path
             id="path136"
             style="fill:none;stroke:#005493;stroke-width:2;stroke-linecap:round;stroke-linejoin:round;stroke-miterlimit:10;stroke-dasharray:none;stroke-opacity:1"
             d="m 344.9788,222.2603 -21.7662,28.8284" /></g><g
           transform="matrix(1,0,0,-1,-216,286)"
           id="g138"><path
             id="path140"
             style="fill:none;stroke:#005493;stroke-width:2;stroke-linecap:round;stroke-linejoin:round;stroke-miterlimit:10;stroke-dasharray:none;stroke-opacity:1"
             d="m 361.1532,222.2603 21.7663,28.8284" /></g><g
           transform="matrix(1,0,0,-1,-216,286)"
           id="g142"><path
             id="path144"
             style="fill:none;stroke:#005493;stroke-width:2;stroke-linecap:round;stroke-linejoin:round;stroke-miterlimit:10;stroke-dasharray:none;stroke-opacity:1"
             d="m 377.3466,111.767 -58.6787,41.6342" /></g><g
           transform="matrix(1,0,0,-1,-216,286)"
           id="g146"><path
             id="path148"
             style="fill:none;stroke:#005493;stroke-width:2;stroke-linecap:round;stroke-linejoin:round;stroke-miterlimit:10;stroke-dasharray:none;stroke-opacity:1"
             d="m 399.6511,111.7124 56.063,39.3505" /></g><g
           transform="matrix(1,0,0,-1,-216,286)"
           id="g150"><path
             id="path152"
             style="fill:none;stroke:#005493;stroke-width:2;stroke-linecap:round;stroke-linejoin:round;stroke-miterlimit:10;stroke-dasharray:none;stroke-opacity:1"
             d="m 296.714,169.5688 -44.1173,33.7103" /></g><g
           transform="matrix(1,0,0,-1,-216,286)"
           id="g154"><path
             id="path156"
             style="fill:none;stroke:#005493;stroke-width:2;stroke-linecap:round;stroke-linejoin:round;stroke-miterlimit:10;stroke-dasharray:none;stroke-opacity:1"
             d="m 316.5912,171.2916 27.4209,30.2647" /></g></g></g></svg>